<svg xmlns="http://www.w3.org/2000/svg" viewBox="0 0 750 500"><g id="freepik--background-simple--inject-2"><path d="M651.87,36.51l-2,.05c-16.78.46-32.1,9.85-39.41,24.79a43.73,43.73,0,0,0-2.39,5.95,47.23,47.23,0,0,0,8.73,43.75c5.88,7,14,12.72,17,21.38,3.8,11.27-2.62,23.07-8.78,33.14s-12.56,21.89-8.71,33.15c2.41,7.05,8.53,12.34,15.22,15.7,17.72,8.9,39.93,5.69,56.27-5.19s27.26-28.43,33.42-47c8.62-26,8.36-55.65-4-80.41S679.53,38.13,651.87,36.51Z" style="fill:#f5f5f5"></path><path d="M60.66,244.18l1.13-1.41a40.79,40.79,0,0,1,39.49-14.89,39.47,39.47,0,0,1,5.61,1.53,42.85,42.85,0,0,1,26.81,30.27c1.87,8.11,1.51,17.11,6.16,24,6.06,8.92,18.1,10.75,28.75,11.81s22.69,2.92,28.71,11.86c3.77,5.6,4.24,12.93,3,19.6-3.28,17.67-17.77,32-34.58,37.8s-35.47,4.12-52.27-1.62c-23.54-8-44.78-24.45-55.89-46.93S46.67,265.05,60.66,244.18Z" style="fill:#f5f5f5"></path><circle cx="68.88" cy="134.76" r="42.78" style="fill:#f5f5f5"></circle><circle cx="666.57" cy="286.83" r="30.76" transform="translate(-7.59 555.35) rotate(-45)" style="fill:#f5f5f5"></circle></g><g id="freepik--Floor--inject-2"><path d="M681.12,475.24c0,.14-137.07.26-306.11.26s-306.13-.12-306.13-.26S205.92,475,375,475,681.12,475.09,681.12,475.24Z" style="fill:#263238"></path></g><g id="freepik--Device--inject-2"><path d="M590.87,90.93H155.79a13.58,13.58,0,0,0-13.58,13.58V411.82a13.58,13.58,0,0,0,13.58,13.58h167s10.62,32.84-22.3,49.84H456.6S419.43,462.49,429,425.4H590.87a13.58,13.58,0,0,0,13.58-13.58V104.51A13.58,13.58,0,0,0,590.87,90.93Z" style="fill:#455a64"></path><path d="M379.14,393.08c5.92,8.46-3.35,17.72-11.81,11.8a2.94,2.94,0,0,1-.72-.73c-5.91-8.45,3.35-17.7,11.8-11.8A3.16,3.16,0,0,1,379.14,393.08Z" style="fill:#263238"></path><path d="M159.4,96.56H587.26a9.7,9.7,0,0,1,9.7,9.7V369.18a0,0,0,0,1,0,0H149.7a0,0,0,0,1,0,0V106.26a9.7,9.7,0,0,1,9.7-9.7Z" style="fill:#fff"></path><path d="M158.86,96.56H589.44a7.52,7.52,0,0,1,7.52,7.52v15.14a0,0,0,0,1,0,0H149.7a0,0,0,0,1,0,0v-13.5A9.15,9.15,0,0,1,158.86,96.56Z" style="fill:#ebebeb"></path><path d="M513.08,425.44c0,.15-61.91.26-138.26.26s-138.28-.11-138.28-.26,61.9-.26,138.28-.26S513.08,425.3,513.08,425.44Z" style="fill:#263238"></path></g><g id="freepik--Resume--inject-2"><rect x="248.39" y="49.36" width="272.73" height="320.17" style="fill:#fff"></rect><rect x="483.91" y="49.41" width="37.13" height="34.94" style="fill:#f5f5f5"></rect><rect x="497.87" y="60.8" width="2.94" height="2.95" style="fill:#fff"></rect><rect x="501.96" y="60.8" width="2.94" height="2.95" style="fill:#fff"></rect><rect x="506.04" y="60.8" width="2.94" height="2.95" style="fill:#fff"></rect><rect x="497.87" y="65.2" width="2.94" height="2.95" style="fill:#fff"></rect><rect x="501.96" y="65.2" width="2.94" height="2.95" style="fill:#fff"></rect><rect x="506.04" y="65.2" width="2.94" height="2.95" style="fill:#fff"></rect><rect x="497.87" y="69.59" width="2.94" height="2.95" style="fill:#fff"></rect><rect x="501.96" y="69.59" width="2.94" height="2.95" style="fill:#fff"></rect><rect x="506.04" y="69.59" width="2.94" height="2.95" style="fill:#fff"></rect><rect x="248.31" y="33.23" width="272.73" height="16.18" style="fill:#e0e0e0"></rect><path d="M258.42,41.32a2.67,2.67,0,1,1-2.66-2.67A2.67,2.67,0,0,1,258.42,41.32Z" style="fill:#fff"></path><path d="M266,41.32a2.67,2.67,0,1,1-2.67-2.67A2.67,2.67,0,0,1,266,41.32Z" style="fill:#fff"></path><path d="M273.64,41.32A2.67,2.67,0,1,1,271,38.65,2.68,2.68,0,0,1,273.64,41.32Z" style="fill:#fff"></path><path d="M280.41,79v9.29h-2.14V84.47h-4.21v3.81h-2.14V79h2.14v3.66h4.21V79Z" style="fill:#263238"></path><path d="M289.4,85.29H284a1.9,1.9,0,0,0,2,1.44,2.42,2.42,0,0,0,1.78-.69l1.1,1.19A3.7,3.7,0,0,1,286,88.39c-2.47,0-4.07-1.56-4.07-3.68a3.63,3.63,0,0,1,3.8-3.68,3.54,3.54,0,0,1,3.71,3.71C289.44,84.89,289.41,85.12,289.4,85.29ZM284,84.09h3.51a1.78,1.78,0,0,0-3.51,0Z" style="fill:#263238"></path><path d="M290.81,78.43h2.07v9.85h-2.07Z" style="fill:#263238"></path><path d="M294.8,78.43h2.06v9.85H294.8Z" style="fill:#263238"></path><path d="M298.25,84.71a3.92,3.92,0,1,1,3.91,3.68A3.67,3.67,0,0,1,298.25,84.71Zm5.73,0a1.83,1.83,0,1,0-1.82,2A1.8,1.8,0,0,0,304,84.71Z" style="fill:#263238"></path><path d="M307.14,87.18a1.27,1.27,0,0,1,2.54,0,1.27,1.27,0,0,1-2.54,0Zm0-8.19h2.46l-.41,6.06h-1.64Z" style="fill:#263238"></path><path d="M318.21,98.43c0,.15-10.44.26-23.32.26s-23.32-.11-23.32-.26,10.44-.26,23.32-.26S318.21,98.29,318.21,98.43Z" style="fill:#263238"></path><path d="M359.75,106.31c0,.14-19.74.26-44.09.26s-44.09-.12-44.09-.26,19.74-.26,44.09-.26S359.75,106.17,359.75,106.31Z" style="fill:#263238"></path><path d="M374.48,115.13c0,.14-22.94.26-51.23.26s-51.23-.12-51.23-.26,22.93-.26,51.23-.26S374.48,115,374.48,115.13Z" style="fill:#e0e0e0"></path><path d="M374.48,121c0,.14-22.94.26-51.23.26S272,121.17,272,121s22.93-.26,51.23-.26S374.48,120.89,374.48,121Z" style="fill:#e0e0e0"></path><path d="M328.91,143.93h0a7.1,7.1,0,0,1-7.09-7.11h0a7.1,7.1,0,0,1,7.09-7.11h0a7.1,7.1,0,0,1,7.09,7.11h0A7.11,7.11,0,0,1,328.91,143.93Z" style="fill:#7E57C2"></path><rect x="325.69" y="135.23" width="1.47" height="4.75" style="fill:#fff"></rect><path d="M326.42,134.61a.88.88,0,1,0-.87-.87A.87.87,0,0,0,326.42,134.61Z" style="fill:#fff"></path><path d="M329.51,137.49c0-.67.3-1.06.89-1.06s.8.38.8,1.06V140h1.46v-3a1.72,1.72,0,0,0-3.15-1.11v-.64H328.1V140h1.41Z" style="fill:#fff"></path><path d="M295.23,144h0a7.15,7.15,0,0,1-7.15-7.16h0a7.16,7.16,0,0,1,7.15-7.17h0a7.15,7.15,0,0,1,7.14,7.17h0A7.14,7.14,0,0,1,295.23,144Z" style="fill:#7E57C2"></path><path d="M296.84,136.63H294v.83h1.95a1.91,1.91,0,0,1-1.89,1.63,2.27,2.27,0,1,1,1.54-3.94l.64-.55a3.11,3.11,0,1,0-2.18,5.33,2.82,2.82,0,0,0,2.83-3Z" style="fill:#fff"></path><polygon points="300.99 136.67 299.8 136.67 299.8 135.47 299.04 135.47 299.04 136.67 297.84 136.67 297.84 137.43 299.04 137.43 299.04 138.62 299.8 138.62 299.8 137.43 300.99 137.43 300.99 136.67" style="fill:#fff"></polygon><path d="M312.31,143.88h0a7.05,7.05,0,0,1-7-7h0a7.05,7.05,0,0,1,7-7.06h0a7,7,0,0,1,7,7.06h0A7,7,0,0,1,312.31,143.88Z" style="fill:#7E57C2"></path><path d="M312.31,133.65c1,0,1.16,0,1.56,0a2.07,2.07,0,0,1,.72.13,1.31,1.31,0,0,1,.73.73,2.13,2.13,0,0,1,.13.72c0,.41,0,.53,0,1.57s0,1.15,0,1.56a2.07,2.07,0,0,1-.13.72,1.31,1.31,0,0,1-.73.73,2,2,0,0,1-.72.14c-.4,0-.53,0-1.56,0s-1.15,0-1.56,0a1.94,1.94,0,0,1-.71-.14,1.29,1.29,0,0,1-.74-.73,2.35,2.35,0,0,1-.13-.72c0-.41,0-.53,0-1.56s0-1.16,0-1.57a2.42,2.42,0,0,1,.13-.72,1.29,1.29,0,0,1,.74-.73,2,2,0,0,1,.71-.13c.41,0,.53,0,1.56,0m0-.69c-1.05,0-1.18,0-1.59,0a2.8,2.8,0,0,0-.94.18,1.92,1.92,0,0,0-.68.45,1.81,1.81,0,0,0-.44.68,2.8,2.8,0,0,0-.18.94c0,.41,0,.55,0,1.6s0,1.18,0,1.59a2.74,2.74,0,0,0,.18.94,1.84,1.84,0,0,0,.44.69,2,2,0,0,0,.68.44,2.8,2.8,0,0,0,.94.18c.41,0,.54,0,1.59,0s1.18,0,1.59,0a2.8,2.8,0,0,0,.94-.18,1.94,1.94,0,0,0,.68-.44,1.87,1.87,0,0,0,.45-.69,3,3,0,0,0,.18-.94c0-.41,0-.54,0-1.59s0-1.19,0-1.6a3.07,3.07,0,0,0-.18-.94,2,2,0,0,0-1.13-1.13,2.8,2.8,0,0,0-.94-.18c-.41,0-.54,0-1.59,0" style="fill:#fff"></path><path d="M312.31,134.84a2,2,0,1,0,2,2,2,2,0,0,0-2-2m0,3.28a1.29,1.29,0,1,1,1.29-1.29,1.28,1.28,0,0,1-1.29,1.29" style="fill:#fff"></path><path d="M314.84,134.76a.47.47,0,1,1-.93,0,.47.47,0,0,1,.93,0" style="fill:#fff"></path><path d="M278.38,144h0a7.09,7.09,0,0,1-7.08-7.11h0a7.09,7.09,0,0,1,7.08-7.1h0a7.1,7.1,0,0,1,7.09,7.1h0A7.1,7.1,0,0,1,278.38,144Z" style="fill:#7E57C2"></path><path d="M277.3,141.17H279v-4.33h1.2l.13-1.45H279v-.83c0-.34.06-.48.39-.48h.94v-1.5h-1.2c-1.28,0-1.86.57-1.86,1.65v1.16h-.9v1.46h.9Z" style="fill:#fff"></path><path d="M347,153.59c0,.14-17.92.26-40,.26s-40-.12-40-.26,17.93-.26,40-.26S347,153.44,347,153.59Z" style="fill:#263238"></path><rect x="264.5" y="179.78" width="244.43" height="189.28" style="fill:#f5f5f5"></rect><path d="M341.69,202.28c0,.14-7.44.26-16.61.26s-16.6-.12-16.6-.26,7.43-.26,16.6-.26S341.69,202.13,341.69,202.28Z" style="fill:#7E57C2"></path><path d="M460.75,202.28c0,.14-7.43.26-16.6.26s-16.6-.12-16.6-.26,7.43-.26,16.6-.26S460.75,202.13,460.75,202.28Z" style="fill:#7E57C2"></path><path d="M460.75,240.55c0,.15-7.43.26-16.6.26s-16.6-.11-16.6-.26,7.43-.26,16.6-.26S460.75,240.41,460.75,240.55Z" style="fill:#7E57C2"></path><path d="M353,214.55c0,.14-9.66.26-21.57.26s-21.56-.12-21.56-.26,9.65-.26,21.56-.26S353,214.41,353,214.55Z" style="fill:#455a64"></path><path d="M351.67,237.18c0,.15-9.66.26-21.57.26s-21.56-.11-21.56-.26,9.65-.26,21.56-.26S351.67,237,351.67,237.18Z" style="fill:#263238"></path><path d="M306.65,214.55a1,1,0,1,1-1-1A1,1,0,0,1,306.65,214.55Z" style="fill:#263238"></path><path d="M306.65,237.18a1,1,0,1,1-1-1A1,1,0,0,1,306.65,237.18Z" style="fill:#263238"></path><path d="M306.6,256.32a1,1,0,1,1-1-1A1,1,0,0,1,306.6,256.32Z" style="fill:#263238"></path><path d="M305.6,234.46a74.92,74.92,0,0,1-.26-8.76,74.81,74.81,0,0,1,.26-8.75,72.27,72.27,0,0,1,.26,8.75A72.38,72.38,0,0,1,305.6,234.46Z" style="fill:#263238"></path><path d="M305.6,252.67a36,36,0,0,1-.26-6.06,36.05,36.05,0,0,1,.26-6.06,34.83,34.83,0,0,1,.26,6.06A34.74,34.74,0,0,1,305.6,252.67Z" style="fill:#263238"></path><path d="M327.7,218.22a71.54,71.54,0,0,1-8.56.26,71.68,71.68,0,0,1-8.56-.26,69.24,69.24,0,0,1,8.56-.26A69.11,69.11,0,0,1,327.7,218.22Z" style="fill:#455a64"></path><path d="M352.65,225.21c0,.14-9.34.26-20.85.26s-20.85-.12-20.85-.26,9.33-.26,20.85-.26S352.65,225.06,352.65,225.21Z" style="fill:#e0e0e0"></path><path d="M341,231c0,.14-6.72.26-15,.26s-15-.12-15-.26,6.72-.26,15-.26S341,230.88,341,231Z" style="fill:#e0e0e0"></path><path d="M352.28,228c0,.14-9.33.26-20.85.26s-20.85-.12-20.85-.26,9.34-.26,20.85-.26S352.28,227.88,352.28,228Z" style="fill:#e0e0e0"></path><path d="M352.65,243.49c0,.14-9.34.26-20.85.26s-20.85-.12-20.85-.26,9.33-.26,20.85-.26S352.65,243.34,352.65,243.49Z" style="fill:#e0e0e0"></path><path d="M341,249.31c0,.14-6.72.26-15,.26s-15-.12-15-.26,6.72-.26,15-.26S341,249.16,341,249.31Z" style="fill:#e0e0e0"></path><path d="M352.28,246.31c0,.14-9.33.26-20.85.26s-20.85-.12-20.85-.26,9.34-.26,20.85-.26S352.28,246.16,352.28,246.31Z" style="fill:#e0e0e0"></path><path d="M351.67,256.51c0,.15-9.66.26-21.57.26s-21.56-.11-21.56-.26,9.65-.26,21.56-.26S351.67,256.37,351.67,256.51Z" style="fill:#263238"></path><path d="M352.65,262.82c0,.14-9.34.26-20.85.26S311,263,311,262.82s9.33-.26,20.85-.26S352.65,262.67,352.65,262.82Z" style="fill:#e0e0e0"></path><path d="M341,268.64c0,.14-6.72.26-15,.26s-15-.12-15-.26,6.72-.26,15-.26S341,268.49,341,268.64Z" style="fill:#e0e0e0"></path><path d="M352.28,265.64c0,.14-9.33.26-20.85.26s-20.85-.12-20.85-.26,9.34-.26,20.85-.26S352.28,265.49,352.28,265.64Z" style="fill:#e0e0e0"></path><path d="M341.69,281.64c0,.14-7.44.26-16.61.26s-16.6-.12-16.6-.26,7.43-.26,16.6-.26S341.69,281.49,341.69,281.64Z" style="fill:#7E57C2"></path><path d="M353,293.91c0,.14-9.66.26-21.57.26s-21.56-.12-21.56-.26,9.65-.26,21.56-.26S353,293.77,353,293.91Z" style="fill:#455a64"></path><path d="M351.67,316.54c0,.15-9.66.26-21.57.26s-21.56-.11-21.56-.26,9.65-.26,21.56-.26S351.67,316.4,351.67,316.54Z" style="fill:#263238"></path><circle cx="305.66" cy="293.91" r="0.99" style="fill:#263238"></circle><path d="M306.65,316.54a1,1,0,1,1-1-1A1,1,0,0,1,306.65,316.54Z" style="fill:#263238"></path><path d="M306.6,335.68a1,1,0,1,1-2,0,1,1,0,0,1,2,0Z" style="fill:#263238"></path><path d="M305.6,313.82a74.81,74.81,0,0,1-.26-8.75,74.92,74.92,0,0,1,.26-8.76,72.38,72.38,0,0,1,.26,8.76A72.27,72.27,0,0,1,305.6,313.82Z" style="fill:#263238"></path><path d="M305.6,332a70.75,70.75,0,0,1,0-12.12,70.75,70.75,0,0,1,0,12.12Z" style="fill:#263238"></path><path d="M327.7,297.58a71.54,71.54,0,0,1-8.56.26,71.68,71.68,0,0,1-8.56-.26,69.24,69.24,0,0,1,8.56-.26A69.11,69.11,0,0,1,327.7,297.58Z" style="fill:#455a64"></path><path d="M352.65,304.57c0,.14-9.34.26-20.85.26s-20.85-.12-20.85-.26,9.33-.26,20.85-.26S352.65,304.42,352.65,304.57Z" style="fill:#e0e0e0"></path><path d="M341,310.39c0,.14-6.72.26-15,.26s-15-.12-15-.26,6.72-.26,15-.26S341,310.25,341,310.39Z" style="fill:#e0e0e0"></path><path d="M352.28,307.39c0,.14-9.33.26-20.85.26s-20.85-.12-20.85-.26,9.34-.26,20.85-.26S352.28,307.24,352.28,307.39Z" style="fill:#e0e0e0"></path><path d="M352.65,322.85c0,.14-9.34.26-20.85.26S311,323,311,322.85s9.33-.26,20.85-.26S352.65,322.7,352.65,322.85Z" style="fill:#e0e0e0"></path><path d="M341,328.67c0,.14-6.72.26-15,.26s-15-.12-15-.26,6.72-.26,15-.26S341,328.53,341,328.67Z" style="fill:#e0e0e0"></path><path d="M352.28,325.67c0,.14-9.33.26-20.85.26s-20.85-.12-20.85-.26,9.34-.26,20.85-.26S352.28,325.52,352.28,325.67Z" style="fill:#e0e0e0"></path><path d="M351.67,335.87c0,.15-9.66.26-21.57.26s-21.56-.11-21.56-.26,9.65-.26,21.56-.26S351.67,335.73,351.67,335.87Z" style="fill:#263238"></path><path d="M352.65,342.18c0,.14-9.34.26-20.85.26s-20.85-.12-20.85-.26,9.33-.26,20.85-.26S352.65,342,352.65,342.18Z" style="fill:#e0e0e0"></path><path d="M341,348c0,.14-6.72.26-15,.26s-15-.12-15-.26,6.72-.26,15-.26S341,347.86,341,348Z" style="fill:#e0e0e0"></path><path d="M352.28,345c0,.14-9.33.26-20.85.26s-20.85-.12-20.85-.26,9.34-.26,20.85-.26S352.28,344.85,352.28,345Z" style="fill:#e0e0e0"></path><path d="M389.47,368.6c-.14,0-.26-42-.26-93.82s.12-93.82.26-93.82.26,42,.26,93.82S389.61,368.6,389.47,368.6Z" style="fill:#455a64"></path><path d="M483.91,213.46c0,.14-13.14.26-29.34.26s-29.35-.12-29.35-.26,13.13-.26,29.35-.26S483.91,213.32,483.91,213.46Z" style="fill:#455a64"></path><path d="M484.69,218.22c0,.14-13,.26-29.13.26s-29.13-.12-29.13-.26,13-.26,29.13-.26S484.69,218.07,484.69,218.22Z" style="fill:#455a64"></path><path d="M460.75,313.91c0,.14-7.43.26-16.6.26s-16.6-.12-16.6-.26,7.43-.26,16.6-.26S460.75,313.77,460.75,313.91Z" style="fill:#7E57C2"></path><path d="M483.91,325.09c0,.15-13.14.26-29.34.26s-29.35-.11-29.35-.26,13.13-.26,29.35-.26S483.91,325,483.91,325.09Z" style="fill:#455a64"></path><path d="M484.69,329.85c0,.14-13.31.26-29.73.26s-29.74-.12-29.74-.26,13.31-.26,29.74-.26S484.69,329.71,484.69,329.85Z" style="fill:#455a64"></path><path d="M479.16,256.41H428.68a2.24,2.24,0,0,1-2.25-2.24h0a2.25,2.25,0,0,1,2.25-2.25h50.48a2.25,2.25,0,0,1,2.25,2.25h0A2.24,2.24,0,0,1,479.16,256.41Z" style="fill:#e0e0e0"></path><path d="M455.83,256.41H428.68a2.24,2.24,0,0,1-2.25-2.24h0a2.25,2.25,0,0,1,2.25-2.25h27.15a2.25,2.25,0,0,1,2.25,2.25h0A2.24,2.24,0,0,1,455.83,256.41Z" style="fill:#7E57C2"></path><path d="M479.16,266.41H428.68a2.24,2.24,0,0,1-2.25-2.24h0a2.25,2.25,0,0,1,2.25-2.25h50.48a2.25,2.25,0,0,1,2.25,2.25h0A2.24,2.24,0,0,1,479.16,266.41Z" style="fill:#e0e0e0"></path><path d="M447,266.41H428.68a2.24,2.24,0,0,1-2.25-2.24h0a2.25,2.25,0,0,1,2.25-2.25H447a2.25,2.25,0,0,1,2.25,2.25h0A2.24,2.24,0,0,1,447,266.41Z" style="fill:#7E57C2"></path><path d="M479.16,276.41H428.68a2.24,2.24,0,0,1-2.25-2.24h0a2.25,2.25,0,0,1,2.25-2.25h50.48a2.25,2.25,0,0,1,2.25,2.25h0A2.24,2.24,0,0,1,479.16,276.41Z" style="fill:#e0e0e0"></path><path d="M471.85,276.41H428.68a2.24,2.24,0,0,1-2.25-2.24h0a2.25,2.25,0,0,1,2.25-2.25h43.17a2.24,2.24,0,0,1,2.24,2.25h0A2.24,2.24,0,0,1,471.85,276.41Z" style="fill:#7E57C2"></path><path d="M479.16,286.42H428.68a2.25,2.25,0,0,1-2.25-2.25h0a2.25,2.25,0,0,1,2.25-2.25h50.48a2.25,2.25,0,0,1,2.25,2.25h0A2.25,2.25,0,0,1,479.16,286.42Z" style="fill:#e0e0e0"></path><path d="M465.72,286.42h-37a2.25,2.25,0,0,1-2.25-2.25h0a2.25,2.25,0,0,1,2.25-2.25h37a2.25,2.25,0,0,1,2.25,2.25h0A2.25,2.25,0,0,1,465.72,286.42Z" style="fill:#7E57C2"></path><path d="M421.52,255.12a42,42,0,0,1-9.51,0,43.61,43.61,0,0,1,9.51,0Z" style="fill:#455a64"></path><path d="M421.52,264.17a43.61,43.61,0,0,1-9.51,0,43.61,43.61,0,0,1,9.51,0Z" style="fill:#455a64"></path><path d="M421.52,273.21a43.61,43.61,0,0,1-9.51,0,43.61,43.61,0,0,1,9.51,0Z" style="fill:#455a64"></path><path d="M421.52,282.25a43.61,43.61,0,0,1-9.51,0,43.61,43.61,0,0,1,9.51,0Z" style="fill:#455a64"></path><polygon points="284.57 196.94 292.98 193.25 300.62 196.94 292.81 200.94 284.57 196.94" style="fill:#7E57C2"></polygon><polygon points="286.33 198.95 286.21 203.97 298.67 203.97 298.67 199.12 292.65 202.07 286.33 198.95" style="fill:#7E57C2"></polygon><rect x="406.19" y="196.54" width="12.45" height="7.91" style="fill:#7E57C2"></rect><rect x="409.92" y="204.45" width="5" height="2.48" style="fill:#7E57C2"></rect><path d="M417.69,206.84a59.58,59.58,0,0,1-11.12,0,59.58,59.58,0,0,1,11.12,0Z" style="fill:#7E57C2"></path><rect x="281.61" y="276.45" width="12.45" height="7.91" style="fill:#7E57C2"></rect><rect x="285.33" y="284.36" width="5" height="2.48" style="fill:#7E57C2"></rect><path d="M293.1,286.75a59.58,59.58,0,0,1-11.12,0,59.58,59.58,0,0,1,11.12,0Z" style="fill:#7E57C2"></path><path d="M418,243l-1.13-2a5.38,5.38,0,1,0-1.29,1.43h0Z" style="fill:#7E57C2"></path><path d="M414.92,311a3.06,3.06,0,0,0,1.83-2.84,2.89,2.89,0,1,0-5.76,0,3.08,3.08,0,0,0,1.84,2.87c-4.44.67-4.23,5.49-4.23,5.49l10.48,0S419.32,311.67,414.92,311Z" style="fill:#7E57C2"></path><path d="M521,33.23c0,2,.1,136.34.24,336.35v.24H521l-272.7,0h-.29v-.27c0-124.45,0-240.17,0-336.35V33h.22L521,33.23l-272.73.22.22-.22c0,96.18,0,211.9,0,336.35l-.26-.26h0l272.7,0-.23.23C521,169.57,521,35.26,521,33.23Z" style="fill:#263238"></path></g><g id="freepik--character-2--inject-2"><path d="M419.54,108.55s-11.11,3.8-12.49,11.2-2.92,17.55-2.92,17.55l16.8-.94Z" style="fill:#7E57C2"></path><polygon points="428.94 104.95 418.54 108.95 416.37 162.06 414.98 179.78 467 179.78 460.76 108.55 444.54 105.16 428.94 104.95" style="fill:#7E57C2"></polygon><path d="M474,134.93s-2.61-24.88-13.24-26.38L456.29,125v9.91Z" style="fill:#7E57C2"></path><path d="M420.18,138.47s3.77-1.8,5.54-1.17,9.2,4.12,9.2,4.12l-14,4.63-3.44-3.94Z" style="fill:#ffbe9d"></path><g style="opacity:0.30000000000000004"><path d="M465.45,158.9a8.54,8.54,0,0,0-5.08-4.51,25.35,25.35,0,0,0-6.88-1.21l-19.62-1.6a18.91,18.91,0,0,0-7.39.38c-4.19,1.37-7.76,5.52-10.07,9.27v.88c2,1.49,4.77,1.47,7.19.86s4.69-1.72,7.13-2.24c4.59-1,9.33.19,13.87,1.36l12.46,3.2c2.24.57,4.78,1.1,6.73-.15A5.22,5.22,0,0,0,465.45,158.9Z"></path></g><path d="M405.46,137.3s-.47,18.21,3.45,21.57,6.34,2.81,10.63,2.25,28.91-12.89,28.91-12.89l-2.61-8.81-25.56,4.68-.13-7.74Z" style="fill:#ffbe9d"></path><path d="M472,134.93s1.12,20.39,0,23-5.23,5.42-9.7,4.68-28.49-7.3-28.51-7.29,8.36-8.8,8.36-8.8l17.35-.38-1.12-11.22Z" style="fill:#ffbe9d"></path><path d="M458.34,137.3c-4.84-3.47-12.5,2.12-12.5,2.12v.93l1.92,6.32,11.7-.52S461.45,139.53,458.34,137.3Z" style="fill:#ffbe9d"></path><path d="M459.08,146.05a18.94,18.94,0,0,1-2.82.24c-1.78.09-4.28.2-7.19.3l.13,0c-1.07.72-2.24,1.48-3.47,2.25-3.33,2.07-6.45,3.75-8.75,4.89-1.15.57-2.09,1-2.75,1.29a4.65,4.65,0,0,1-1,.4,4.58,4.58,0,0,1,1-.58l2.66-1.44c2.25-1.22,5.33-2.94,8.64-5,1.23-.76,2.4-1.51,3.48-2.22l.06,0h.07c2.9-.07,5.41-.11,7.19-.12A17.33,17.33,0,0,1,459.08,146.05Z" style="fill:#eb996e"></path><path d="M458.34,134.93a13.8,13.8,0,0,1,.36,2.6c.15,1.61.33,3.83.49,6.29.05.77.1,1.51.14,2.21l-.1-.18a17.2,17.2,0,0,1,3.4,3.46,5.77,5.77,0,0,1,1,1.66,29.48,29.48,0,0,0-4.67-4.72l-.09-.07v-.12c-.05-.7-.1-1.44-.16-2.2-.16-2.46-.28-4.69-.34-6.31A13.28,13.28,0,0,1,458.34,134.93Z" style="fill:#eb996e"></path><path d="M437.49,141a24.5,24.5,0,0,1-3.39.81c-2.11.43-5,1-8.24,1.58l-5.53,1,.13-.08c-1.19,1.44-2.21,2.63-2.93,3.46a8.94,8.94,0,0,1-1.19,1.25,7.81,7.81,0,0,1,1-1.42c.66-.88,1.62-2.11,2.79-3.58l.05-.06.08,0,5.52-1c3.23-.59,6.15-1.1,8.27-1.44A22.76,22.76,0,0,1,437.49,141Z" style="fill:#eb996e"></path><path d="M420.15,136.36a14.75,14.75,0,0,1,.33,3.86,14.56,14.56,0,0,1-.2,3.88,14.94,14.94,0,0,1-.33-3.87A14.4,14.4,0,0,1,420.15,136.36Z" style="fill:#eb996e"></path><path d="M418.54,121.74a68.16,68.16,0,0,1,1.08,8.34,67,67,0,0,1,.56,8.39,70.59,70.59,0,0,1-1.08-8.34A69.32,69.32,0,0,1,418.54,121.74Z" style="fill:#263238"></path><path d="M459.22,119.87a62.08,62.08,0,0,1-.13,8.18,65.11,65.11,0,0,1-.64,8.16,63,63,0,0,1,.12-8.18A66.41,66.41,0,0,1,459.22,119.87Z" style="fill:#263238"></path><path d="M459.23,77.6c-1.22-1.31-2.7-2.56-3.13-4.3s.18-3.45-.67-4.87c-1-1.75-3.65-1.9-4.9-3.5-.61-.78-.82-1.81-1.42-2.59-1-1.33-2.92-1.63-4.58-1.4s-3.25.88-4.91,1.05c-2.29.23-4.68-.44-6.86.29-2.41.8-3.82,3-5.34,5.14l-2,2.48a8.21,8.21,0,0,1-1.34,1.16,16.2,16.2,0,0,0-2.55,1.75,4.09,4.09,0,0,0,.45,5.86A4.34,4.34,0,0,0,419.21,83a12.2,12.2,0,0,0,.88,2.93,4.39,4.39,0,0,1,.18,3,1.9,1.9,0,0,1-2.46,1.15,4.57,4.57,0,0,0,2.59,3,2.77,2.77,0,0,1-1.81.88c2,4.32,7.13,6.46,11.87,6.33s9.23-2.08,13.58-4l12.66-3.75c1.12-.29,1.54-1.68,1.49-2.83a9,9,0,0,1,0-3.44c.51-1.49,2.2-2.33,2.74-3.82C461.54,80.75,460.46,78.92,459.23,77.6Z" style="fill:#263238"></path><path d="M429.39,90.28a53.43,53.43,0,0,1-2.55-8.75,18.45,18.45,0,0,1,.47-9c.15-.44,1.43-3.38,1.89-3.35s-.44,2.75-.27,3a15.69,15.69,0,0,1,2,9.07,41.18,41.18,0,0,1-1.56,9" style="fill:#263238"></path><path d="M440.63,64.22l-.7,0c-7.61.26-11.64,6.88-11.17,14.49l.18,26.26a8.91,8.91,0,0,0,8.51,8.85h0a8.91,8.91,0,0,0,9.3-8.65c0-1.38.07-2.35.08-2.35s7.33-1,7.6-8.27c.13-3.53-.19-10.83-.56-17.44A13.62,13.62,0,0,0,440.63,64.22Z" style="fill:#ffbe9d"></path><path d="M446.83,102.8a17.55,17.55,0,0,1-9.43-3s2.18,5.38,9.48,4.9Z" style="fill:#eb996e"></path><path d="M450.74,83.08a1,1,0,0,1-1,1,1,1,0,0,1-1-1,1,1,0,0,1,1-1A1,1,0,0,1,450.74,83.08Z" style="fill:#263238"></path><path d="M452.24,80.09c-.14.14-.91-.47-2-.49s-2,.51-2.08.37.08-.3.45-.56a2.85,2.85,0,0,1,1.66-.47,2.81,2.81,0,0,1,1.61.57C452.19,79.78,452.3,80,452.24,80.09Z" style="fill:#263238"></path><path d="M440.23,83.08a1,1,0,0,1-1,1,1,1,0,0,1-1.05-1,1,1,0,0,1,1-1A1,1,0,0,1,440.23,83.08Z" style="fill:#263238"></path><path d="M441.24,80.27c-.13.14-.91-.47-2-.49s-1.95.51-2.07.37.07-.3.44-.56a2.88,2.88,0,0,1,1.67-.47,2.81,2.81,0,0,1,1.61.57C441.19,80,441.31,80.21,441.24,80.27Z" style="fill:#263238"></path><path d="M445.05,89a7.16,7.16,0,0,1,1.83-.29c.29,0,.56-.07.61-.27a1.47,1.47,0,0,0-.17-.85c-.25-.7-.51-1.44-.79-2.21a36.7,36.7,0,0,1-1.76-5.77A37.64,37.64,0,0,1,447,85.24q.39,1.17.75,2.22a1.71,1.71,0,0,1,.13,1.13.71.71,0,0,1-.49.41,2.24,2.24,0,0,1-.48.06A7.87,7.87,0,0,1,445.05,89Z" style="fill:#263238"></path><path d="M441.73,89.71c.18,0,.15,1.22,1.18,2.11s2.31.79,2.32,1-.3.23-.84.23a3.11,3.11,0,0,1-1.95-.73,2.67,2.67,0,0,1-.9-1.77C441.5,90,441.65,89.7,441.73,89.71Z" style="fill:#263238"></path><path d="M441.29,75.71c-.12.3-1.23.13-2.55.26s-2.39.45-2.56.18.12-.42.55-.71a4.34,4.34,0,0,1,1.91-.61,4.22,4.22,0,0,1,2,.28C441.11,75.32,441.34,75.57,441.29,75.71Z" style="fill:#263238"></path><path d="M451.87,76.34c-.21.25-1,0-1.9-.07s-1.72.13-1.9-.14.06-.38.41-.62a2.65,2.65,0,0,1,1.55-.38,2.61,2.61,0,0,1,1.5.55C451.86,76,452,76.22,451.87,76.34Z" style="fill:#263238"></path><path d="M429.22,84.12c-.13-.05-5-1.61-4.94,3.4s5,3.94,5,3.79S429.22,84.12,429.22,84.12Z" style="fill:#ffbe9d"></path><path d="M427.79,89.43s-.09.06-.24.13a.93.93,0,0,1-.65,0,2.16,2.16,0,0,1-1-1.93,2.94,2.94,0,0,1,.24-1.25,1,1,0,0,1,.65-.68.44.44,0,0,1,.51.24c.07.14,0,.24.07.25s.1-.09.06-.3a.58.58,0,0,0-.2-.31.69.69,0,0,0-.48-.12,1.21,1.21,0,0,0-.9.78,3,3,0,0,0-.3,1.4,2.26,2.26,0,0,0,1.29,2.15.92.92,0,0,0,.79-.14C427.78,89.55,427.8,89.44,427.79,89.43Z" style="fill:#eb996e"></path><path d="M450.51,68.85c.8-.46-1.66-3-3.66-3.91-3-1.32-7.62-2.09-10.38-1.26-3.31,1-6.05,2.71-7.68,5.77a19.71,19.71,0,0,0-2,10.09,5.93,5.93,0,0,0,.75,3c.71,1.1,2.06,1.77,2,3.3a2.05,2.05,0,0,0,.54,1.52c.93,1,2,0,2.53-.9,1.07-2,1.15-4.32,1.21-6.57a14.26,14.26,0,0,0-.39-4.75c-.25-.84-.66-1.62-.87-2.46a3.05,3.05,0,0,1,.31-2.51,4.83,4.83,0,0,1,.4-.41,5.19,5.19,0,0,1,5.15-1.07c2.83,1,7.65,2.36,8.89,1.39a7.83,7.83,0,0,0,2.2-2.31Z" style="fill:#263238"></path><path d="M436.72,63a10.88,10.88,0,0,1,8.44.33,5.7,5.7,0,0,1,3.07,3.27,3.3,3.3,0,0,1-1.58,3.92l-.1.06c-2.11.75-3.5.49-5.64-.21-1.8-.6-3.4-1.68-5.2-2.26a10.11,10.11,0,0,0-5.94-.08A16.46,16.46,0,0,1,436.72,63Z" style="fill:#263238"></path></g><g id="freepik--character-1--inject-2"><path d="M195.79,429.21l-12.61,20.3s16.4,19.64,14.43,23.62l-40.24-23,18.36-32.44Z" style="fill:#455a64"></path><path d="M171.74,440.64a1.89,1.89,0,0,0-2.21,1.23,1.81,1.81,0,0,0,1.19,2.2,2,2,0,0,0,2.33-1.31,1.89,1.89,0,0,0-1.49-2.15" style="fill:#e0e0e0"></path><g style="opacity:0.6000000000000001"><path d="M157.37,450.09l2-3.2,37.84,23.28s1.35,1.81.42,3Z" style="fill:#fff"></path></g><path d="M184,449.68c-.12.19-1.15-.28-2.48-.2s-2.32.61-2.45.43.8-1.15,2.41-1.22S184.09,449.52,184,449.68Z" style="fill:#263238"></path><path d="M187.17,453.84c-.06.22-1.11.07-2.25.51s-1.84,1.22-2,1.1.32-1.3,1.75-1.83S187.27,453.65,187.17,453.84Z" style="fill:#263238"></path><path d="M186.67,460.27c-.2-.07.09-1.2,1.21-2s2.29-.69,2.28-.48-.91.46-1.82,1.12S186.88,460.36,186.67,460.27Z" style="fill:#263238"></path><path d="M186.31,444.74c-.19.13-.93-.66-2.09-1.22s-2.22-.71-2.22-.93,1.23-.45,2.58.22S186.49,444.64,186.31,444.74Z" style="fill:#263238"></path><path d="M194,437.55l-1.36,23.86s23.8,9.39,24,13.83l-46.35-1,.59-37.26Z" style="fill:#455a64"></path><path d="M178.39,459.1a1.91,1.91,0,0,0-1.36,2.13,1.83,1.83,0,0,0,2.11,1.36,2,2,0,0,0,1.42-2.26,1.88,1.88,0,0,0-2.34-1.18" style="fill:#e0e0e0"></path><g style="opacity:0.6000000000000001"><path d="M170.3,474.26l.21-3.75,44.36,2.34s2,.94,1.78,2.39Z" style="fill:#fff"></path></g><path d="M193.44,461.19c0,.23-1.15.31-2.28,1s-1.74,1.64-1.95,1.55.16-1.4,1.54-2.22S193.49,461,193.44,461.19Z" style="fill:#263238"></path><path d="M198.26,463.3c0,.22-.94.59-1.73,1.53s-1,1.95-1.26,1.93-.34-1.29.66-2.45S198.26,463.09,198.26,463.3Z" style="fill:#263238"></path><path d="M200.9,469.18c-.21,0-.5-1.09.11-2.32s1.67-1.7,1.76-1.51-.57.84-1.06,1.86S201.12,469.16,200.9,469.18Z" style="fill:#263238"></path><path d="M193.14,455.72c-.1.2-1.13-.13-2.41-.07s-2.29.44-2.4.24.86-1,2.37-1S193.26,455.54,193.14,455.72Z" style="fill:#263238"></path><path d="M233.85,285.26s-3.11,75.59-5,82.62-41.16,78.89-41.16,78.89L164,435.15l31.4-75.89V286Z" style="fill:#263238"></path><path d="M173.14,285.26s-2.49,18.39-1.21,20.31,3.52,8,3.52,8l-1.93,59.1-5.74,86.89h27.6l11.85-76.62s4.15-7,5.75-13.1,11-66.45,11-66.45V280.1Z" style="fill:#263238"></path><path d="M227.05,288.49a2.19,2.19,0,0,1,0,.45c0,.32-.11.75-.18,1.3-.18,1.18-.44,2.87-.76,5l-2.9,18.46c-1.24,7.8-2.72,17.08-4.36,27.37-.84,5.15-1.67,10.56-2.63,16.16a98,98,0,0,1-4.3,17.06c-2.08,5.67-5,10.84-6,16.43-1.19,5.53-2,10.95-2.82,16.1-1.56,10.31-2.82,19.62-3.89,27.44s-1.93,14.14-2.59,18.5c-.33,2.19-.59,3.88-.8,5-.1.55-.19,1-.25,1.3a2.06,2.06,0,0,1-.1.44,3.09,3.09,0,0,1,.05-.45c0-.32.11-.75.18-1.31.17-1.18.4-2.87.7-5,.57-4.4,1.39-10.72,2.41-18.53s2.23-17.14,3.76-27.46c.8-5.16,1.62-10.58,2.8-16.14,1-5.68,4-10.9,6.06-16.51a97.85,97.85,0,0,0,4.29-17c1-5.59,1.81-11,2.66-16.14,1.69-10.29,3.21-19.56,4.48-27.35s2.35-14.05,3.08-18.44l.86-5,.24-1.3A2.49,2.49,0,0,1,227.05,288.49Z" style="fill:#455a64"></path><path d="M170.86,412.88a10.71,10.71,0,0,1,0,1.83c0,1.18-.12,2.87-.24,5-.23,4.2-.65,10-1.14,16.39s-.9,12.19-1.17,16.38c-.14,2-.25,3.7-.33,5a10.56,10.56,0,0,1-.19,1.82,10.81,10.81,0,0,1,0-1.83c0-1.17.06-2.88.14-5,.17-4.2.53-10,1-16.4s1-12.09,1.31-16.37c.17-2,.31-3.69.42-5A13.83,13.83,0,0,1,170.86,412.88Z" style="fill:#455a64"></path><path d="M233.56,127.6c-1.79-1.93-4-3.75-4.59-6.3-.57-2.36.26-5-1-7.13-1.52-2.56-5.33-2.77-7.16-5.12-.89-1.13-1.2-2.64-2.08-3.78-1.49-2-4.28-2.39-6.71-2s-4.75,1.29-7.18,1.54c-3.35.34-6.85-.65-10,.42-3.52,1.17-5.59,4.39-7.81,7.52l-2.9,3.63a12.58,12.58,0,0,1-2,1.7,23.76,23.76,0,0,0-3.74,2.56,6,6,0,0,0,.66,8.56,6.38,6.38,0,0,0-4.08,6.38,18.18,18.18,0,0,0,1.29,4.28,6.35,6.35,0,0,1,.25,4.39c-.55,1.39-2.27,2.38-3.59,1.69a6.73,6.73,0,0,0,3.78,4.35,4,4,0,0,1-2.64,1.28c2.92,6.32,10.43,9.45,17.37,9.26s13.51-3.05,19.86-5.86l18.54-5.48c1.63-.43,2.24-2.46,2.17-4.14s-.57-3.43,0-5c.76-2.19,3.23-3.42,4-5.6C236.93,132.2,235.35,129.53,233.56,127.6Z" style="fill:#263238"></path><path d="M189.89,146.15a77.42,77.42,0,0,1-3.72-12.8,27.05,27.05,0,0,1,.68-13.2c.21-.63,2.09-4.93,2.76-4.89.48,0-.64,4-.38,4.44A22.94,22.94,0,0,1,192.17,133a60.35,60.35,0,0,1-2.28,13.18" style="fill:#263238"></path><path d="M206.34,108l-1,0c-11.13.38-17,10.06-16.34,21.2l.27,38.42a13.06,13.06,0,0,0,12.44,13h0a13,13,0,0,0,13.61-12.67c.06-2,.11-3.43.12-3.43s10.72-1.4,11.12-12.11c.19-5.17-.28-15.85-.82-25.5A19.92,19.92,0,0,0,206.34,108Z" style="fill:#ffbe9d"></path><path d="M215.41,164.47a25.83,25.83,0,0,1-13.8-4.47s3,7.91,13.7,7.21Z" style="fill:#eb996e"></path><path d="M223.06,135.61a1.53,1.53,0,0,1-1.51,1.51A1.47,1.47,0,0,1,220,135.7a1.54,1.54,0,0,1,1.51-1.51A1.47,1.47,0,0,1,223.06,135.61Z" style="fill:#263238"></path><path d="M223.32,131.24c-.19.2-1.33-.69-3-.73s-2.86.76-3,.55.11-.44.65-.81a4.13,4.13,0,0,1,2.43-.69,4,4,0,0,1,2.36.83C223.26,130.79,223.42,131.15,223.32,131.24Z" style="fill:#263238"></path><path d="M207.28,135.61a1.53,1.53,0,0,1-1.51,1.51,1.47,1.47,0,0,1-1.54-1.42,1.54,1.54,0,0,1,1.51-1.51A1.47,1.47,0,0,1,207.28,135.61Z" style="fill:#263238"></path><path d="M207.23,131.51c-.19.19-1.33-.69-3-.73s-2.86.75-3,.55.11-.45.65-.82a4.14,4.14,0,0,1,2.44-.68,4,4,0,0,1,2.35.82C207.17,131.05,207.33,131.42,207.23,131.51Z" style="fill:#263238"></path><path d="M212.81,144.3a10.13,10.13,0,0,1,2.67-.42c.42,0,.82-.11.9-.39a2.11,2.11,0,0,0-.25-1.25c-.37-1-.75-2.11-1.16-3.23-1.61-4.6-2.76-8.38-2.57-8.44s1.63,3.61,3.24,8.21c.39,1.13.76,2.21,1.11,3.25a2.46,2.46,0,0,1,.18,1.65,1.1,1.1,0,0,1-.71.6,3.27,3.27,0,0,1-.71.08A10.84,10.84,0,0,1,212.81,144.3Z" style="fill:#263238"></path><path d="M208,145.31c.27,0,.23,1.78,1.72,3.09s3.39,1.15,3.4,1.4-.43.34-1.23.34a4.43,4.43,0,0,1-2.85-1.07,3.86,3.86,0,0,1-1.32-2.58C207.62,145.74,207.83,145.3,208,145.31Z" style="fill:#263238"></path><path d="M207.31,124.83c-.17.44-1.81.19-3.74.37s-3.5.67-3.74.27c-.11-.2.17-.61.81-1a6.15,6.15,0,0,1,2.79-.9,6.28,6.28,0,0,1,2.91.41C207,124.26,207.38,124.62,207.31,124.83Z" style="fill:#263238"></path><path d="M222.78,125.76c-.3.36-1.42-.05-2.78-.11s-2.51.19-2.77-.21c-.11-.19.08-.56.59-.9a4,4,0,0,1,4.47.25C222.76,125.19,222.91,125.58,222.78,125.76Z" style="fill:#263238"></path><path d="M189.64,137.14c-.18-.08-7.28-2.36-7.23,5s7.38,5.76,7.39,5.55S189.64,137.14,189.64,137.14Z" style="fill:#ffbe9d"></path><path d="M187.55,144.9s-.13.09-.35.19a1.25,1.25,0,0,1-.95,0,3.17,3.17,0,0,1-1.47-2.83,4.18,4.18,0,0,1,.34-1.83,1.47,1.47,0,0,1,.95-1,.65.65,0,0,1,.75.34c.1.21.06.35.1.37s.15-.13.09-.43a.81.81,0,0,0-.29-.46,1,1,0,0,0-.7-.18,1.8,1.8,0,0,0-1.33,1.15,4.34,4.34,0,0,0-.42,2c0,1.48.82,2.85,1.88,3.15a1.38,1.38,0,0,0,1.16-.2C187.53,145.08,187.57,144.91,187.55,144.9Z" style="fill:#eb996e"></path><path d="M220.8,114.8c1.17-.68-2.44-4.46-5.37-5.74-4.42-1.92-11.14-3-15.17-1.83-4.85,1.46-8.87,4-11.24,8.45a28.74,28.74,0,0,0-3,14.76,8.66,8.66,0,0,0,1.1,4.46c1,1.6,3,2.59,3,4.82a3.12,3.12,0,0,0,.8,2.23c1.36,1.4,3,0,3.7-1.32,1.56-2.89,1.69-6.32,1.78-9.61a21.36,21.36,0,0,0-.58-7c-.37-1.21-1-2.36-1.27-3.59a4.4,4.4,0,0,1,.46-3.67,5,5,0,0,1,.58-.61,7.6,7.6,0,0,1,7.53-1.56c4.14,1.39,11.2,3.46,13,2a11.32,11.32,0,0,0,3.22-3.38Z" style="fill:#263238"></path><path d="M200.62,106.23a16,16,0,0,1,12.35.48,8.38,8.38,0,0,1,4.48,4.8c.65,2.15-.23,4.84-2.3,5.72l-.14.09c-3.1,1.11-5.13.72-8.26-.31-2.63-.87-5-2.45-7.61-3.3a14.79,14.79,0,0,0-8.69-.12A24.21,24.21,0,0,1,200.62,106.23Z" style="fill:#263238"></path><path d="M174.11,228.07c-.43,9-3,60.35-3,60.35a87.3,87.3,0,0,0,36.51,3.79c19.57-2.4,27.87,1.34,27.87,1.34L229.76,204,215.1,169.78s-20.45-2.78-25.86-2.17a45.28,45.28,0,0,0-5.52,4.08c-5.49,6.26-9.23,19.59-9.43,30.71Z" style="fill:#7E57C2"></path><g style="opacity:0.30000000000000004"><path d="M205.07,206.83c-5.41-4.64-12.75-2.61-16.45-8.7a178.66,178.66,0,0,0,15,29.62,3.49,3.49,0,0,0,1.46,1.51c1.43.58,2.81-.84,4.11-1.67,2.42-1.55,5.66-1.15,8.25.12s4.71,3.26,7,5,5,3.16,7.88,3.07A188.1,188.1,0,0,0,205.07,206.83Z"></path></g><path d="M227,201.41,240.74,214l14.87-33.83,12.57,4.21s-13.5,50-17,53.86c-4.79,5.23-12.68,4.52-16.81.85-4.74-4.21-22.46-21.7-22.46-21.7Z" style="fill:#ffbe9d"></path><path d="M240.74,222.31a12.94,12.94,0,0,1-.4-4.25,13.13,13.13,0,0,1,.5-4.25,26.25,26.25,0,0,1,0,4.25A28.56,28.56,0,0,1,240.74,222.31Z" style="fill:#eb996e"></path><path d="M254.82,183.54l2.62-16.91a2.28,2.28,0,0,1,.84-1.43l1.12-.89s-.14-.23,1.86-2.84,4.85-2.58,5.56-1.09c0,0,3.73-1.93,4.55.75.48,1.57-1,3.74-1,3.74s3.46,1.1,2.1,5.37c0,0,1.86,0,.14,4.63-.74,2-5.91,12.38-5.91,12.38Z" style="fill:#ffbe9d"></path><path d="M245.24,170.55h0a1.3,1.3,0,0,0,1.76.81l17.37-7.44,2.29-3.44L246,169A1.3,1.3,0,0,0,245.24,170.55Z" style="fill:#263238"></path><path d="M271.17,163.5a10,10,0,0,1-1.35,2.94c-.89,1.57-2.05,2.56-2.15,2.43s.83-1.17,1.7-2.7A10.73,10.73,0,0,1,271.17,163.5Z" style="fill:#eb996e"></path><path d="M262.08,167.48a17.83,17.83,0,0,1,2.2-3.73,18.4,18.4,0,0,1,2.62-3.43,18,18,0,0,1-2.19,3.73A18.11,18.11,0,0,1,262.08,167.48Z" style="fill:#eb996e"></path><path d="M271.18,172.17c-.1-.11.25-.61.62-1.25s.66-1.18.8-1.14.07.71-.35,1.41S271.28,172.27,271.18,172.17Z" style="fill:#eb996e"></path><path d="M228.7,199.74l-22.35,23.53c-8.16-7.79-15.59-20.21-19.4-30.58a21.7,21.7,0,0,1-.74-11.73c.95-3.44,2-4.43,4.38-6.44,0,0,7.21-5.76,17.23,3.14C213.91,183.06,228.7,199.74,228.7,199.74Z" style="fill:#7E57C2"></path><path d="M228.7,199.74a1.82,1.82,0,0,1-.26-.25l-.71-.76-2.73-3c-2.37-2.57-5.78-6.3-10.1-10.82-2.17-2.24-4.54-4.71-7.26-7.16a23.63,23.63,0,0,0-4.63-3.2,13.94,13.94,0,0,0-5.66-1.62,10.72,10.72,0,0,0-6,1.34,11.19,11.19,0,0,0-4.25,4.73,15.09,15.09,0,0,0-.93,3.2,18.17,18.17,0,0,0-.22,3.39,22.39,22.39,0,0,0,1.17,6.85,92.33,92.33,0,0,0,8.68,17.27,73.76,73.76,0,0,0,10.67,13.36h-.31l16.25-17,4.59-4.75,1.23-1.25.44-.43a4.82,4.82,0,0,1-.38.43l-1.15,1.26-4.48,4.79c-3.91,4.17-9.48,10.09-16.18,17.2l-.15.16-.16-.15A73.71,73.71,0,0,1,195.41,210a91.84,91.84,0,0,1-8.75-17.36,22.7,22.7,0,0,1-1.2-7,19.38,19.38,0,0,1,.23-3.49,16.16,16.16,0,0,1,1-3.31,8.51,8.51,0,0,1,1.91-2.84c.39-.4.81-.77,1.22-1.12l.63-.54a8.06,8.06,0,0,1,.72-.47,11.23,11.23,0,0,1,6.24-1.38,14.66,14.66,0,0,1,5.84,1.69,24.38,24.38,0,0,1,4.71,3.28c2.72,2.49,5.08,5,7.23,7.24,4.29,4.55,7.67,8.32,10,10.93,1.14,1.3,2,2.31,2.65,3,.29.33.51.6.68.8A1.86,1.86,0,0,1,228.7,199.74Z" style="fill:#263238"></path></g></svg>